<svg aria-hidden="true" style="position: absolute; width: 0; height: 0; overflow: hidden;" version="1.1" xmlns="http://www.w3.org/2000/svg" xmlns:xlink="http://www.w3.org/1999/xlink">
<defs>
<symbol id="icon-Ellipse-13" viewBox="0 0 32 32">
<path fill="#9be1a0" style="fill: var(--color1, #9be1a0)" d="M32 16c0 8.837-7.163 16-16 16s-16-7.163-16-16c0-8.837 7.163-16 16-16s16 7.163 16 16z"></path>
</symbol>
<symbol id="icon-pie-chart-02" viewBox="0 0 32 32">
<path fill="none" opacity="0.4" stroke="#323f47" style="stroke: var(--color2, #323f47)" stroke-linejoin="round" stroke-linecap="round" stroke-miterlimit="4" stroke-width="2.88" d="M22.933 18.667c0.37 0 0.554 0 0.704 0.080 0.129 0.076 0.231 0.188 0.291 0.322l0.002 0.004c0.067 0.157 0.051 0.323 0.016 0.658-0.56 5.414-5.097 9.6-10.612 9.6-5.89 0-10.666-4.775-10.666-10.666 0-5.515 4.187-10.053 9.555-10.608l0.046-0.004c0.334-0.032 0.501-0.050 0.658 0.016 0.13 0.056 0.256 0.171 0.325 0.294 0.082 0.149 0.082 0.334 0.082 0.704v8.533c0 0.373 0 0.56 0.074 0.704 0.064 0.125 0.165 0.226 0.291 0.29 0.142 0.074 0.328 0.074 0.702 0.074h8.533z"></path>
<path fill="none" opacity="0.4" stroke="#9be1a0" style="stroke: var(--color1, #9be1a0)" stroke-linejoin="round" stroke-linecap="round" stroke-miterlimit="4" stroke-width="2.88" d="M18.666 3.733c0-0.368 0-0.554 0.083-0.704 0.075-0.129 0.186-0.23 0.319-0.291l0.004-0.002c0.158-0.066 0.325-0.050 0.659-0.016 5.050 0.521 9.028 4.499 9.545 9.503l0.004 0.046c0.032 0.334 0.050 0.501-0.016 0.658-0.063 0.138-0.165 0.25-0.291 0.323l-0.003 0.002c-0.149 0.082-0.334 0.082-0.704 0.082h-8.533c-0.373 0-0.56 0-0.702-0.072-0.126-0.065-0.226-0.165-0.289-0.287l-0.002-0.004c-0.074-0.144-0.074-0.33-0.074-0.704v-8.531z"></path>
</symbol>
</defs>
</svg>

