<svg aria-hidden="true" style="position: absolute; width: 0; height: 0; overflow: hidden;" version="1.1" xmlns="http://www.w3.org/2000/svg" xmlns:xlink="http://www.w3.org/1999/xlink">
<defs>
<symbol id="icon-Ellipse-13" viewBox="0 0 32 32">
<path fill="#9be1a0" style="fill: var(--color1, #9be1a0)" d="M32 16c0 8.837-7.163 16-16 16s-16-7.163-16-16c0-8.837 7.163-16 16-16s16 7.163 16 16z"></path>
</symbol>
<symbol id="icon-trash" viewBox="0 0 32 32">
<path stroke-linecap="round" stroke-linejoin="round" stroke-width="2.971" d="M12 4h8M4 8h24m-2.667 0-.935 14.026c-.14 2.104-.21 3.156-.665 3.954a4 4 0 0 1-1.731 1.619c-.826.4-1.881.4-3.99.4h-4.025c-2.109 0-3.163 0-3.99-.4a4 4 0 0 1-1.731-1.619c-.455-.798-.525-1.85-.665-3.954L6.666 8"/>
</symbol>
<symbol id="icon-pen" viewBox="0 0 32 32">
<path stroke-linecap="round" stroke-linejoin="round" stroke-width="2.971" d="M22.666 4a3.76 3.76 0 0 1 2.667-1.104A3.779 3.779 0 0 1 27.999 4a3.783 3.783 0 0 1 .818 4.109 3.743 3.743 0 0 1-.818 1.223l-18 18-7.333 2 2-7.333 18-18z"/>
</symbol>
<symbol id="icon-glass" viewBox="0 0 29 32">
<path d="M28.631 2.277c-.119-.393-.319-.756-.587-1.064s-.598-.554-.968-.722a2.665 2.665 0 0 0-1.174-.257H3.066a2.34 2.34 0 0 0-1.174.241c-.378.17-.714.423-.984.74-.268.308-.468.67-.587 1.062A2.85 2.85 0 0 0 .21 3.484l2.603 22.527a6.337 6.337 0 0 0 2.047 3.991 6.06 6.06 0 0 0 4.079 1.609h11.109a6.088 6.088 0 0 0 4.094-1.609 6.461 6.461 0 0 0 2.031-3.991l1.412-12.663v-.193l1.095-9.654a3.269 3.269 0 0 0-.048-1.223zM12.603 26.976h-1.587a4.532 4.532 0 0 1-2.777-1.159 4.552 4.552 0 0 1-1.428-2.687l-.381-2.768c-.049-.422.067-.846.323-1.183a1.592 1.592 0 0 1 2.22-.315c.337.252.564.628.631 1.047l.381 2.735c.043.299.189.573.413.772.222.206.509.326.809.338h1.587c.421 0 .824.169 1.122.471s.465.711.465 1.138-.167.836-.465 1.138a1.575 1.575 0 0 1-1.122.471h-.19zm12.696-14.852c-3.348.66-6.205.788-9.236-1.609-3.761-3.009-8.316-2.044-12.696-.467l-.793-6.822a.461.461 0 0 1 0-.209.42.42 0 0 1 .111-.177.32.32 0 0 1 .159-.129.341.341 0 0 1 .19 0h23.043c.06.034.113.077.159.129a.373.373 0 0 1 .095.177.36.36 0 0 1 0 .225l-1.032 8.882z"/>
</symbol>
</defs>
</svg>
